<?xml version="1.0" encoding="UTF-8" standalone="no"?>
<svg
  version="1.1"
  width="595.27557pt"
  height="841.88977pt"
  id="svg5"
  viewBox="0 0 595.27557 841.88977"
  sodipodi:docname="pb.cdr"
  xmlns:inkscape="http://www.inkscape.org/namespaces/inkscape"
  xmlns:sodipodi="http://sodipodi.sourceforge.net/DTD/sodipodi-0.dtd"
  xmlns="http://www.w3.org/2000/svg"
  xmlns:svg="http://www.w3.org/2000/svg">
  <defs
    id="defs9" />
  <sodipodi:namedview
    id="namedview7"
    pagecolor="#ffffff"
    bordercolor="#000000"
    borderopacity="0.25"
    inkscape:showpageshadow="2"
    inkscape:pageopacity="0.0"
    inkscape:pagecheckerboard="0"
    inkscape:deskcolor="#d1d1d1"
    inkscape:document-units="pt" />
  <g
    id="Layer1000">
    <path
      d="m 336.384,657.042 c -2.8318,-4.0825 -6.1441,-9.0786 -7.361,-11.1025 l -2.2124,-3.6799 -12.6718,-0.4241 c -11.4117,-0.3821 -21.0965,-1.4536 -29.2317,-3.2341 l -2.88,-0.6304 -8.64,8.3988 c -9.8234,9.5491 -12.2814,11.4162 -13.4668,10.2308 -0.8317,-0.8317 -4.8504,-20.0072 -4.8776,-23.273 -0.0198,-2.3627 -0.6854,-2.8664 -6.4956,-4.9153 -2.5738,-0.9076 -9.1531,-3.8846 -14.62,-6.6155 l -9.9402,-4.9651 -8.7798,2.7924 c -14.0034,4.4538 -21.3241,6.2186 -22.1927,5.3501 -0.8396,-0.8396 0.8326,-7.7366 3.9736,-16.3897 0.9967,-2.7459 1.7465,-5.0383 1.666,-5.0941 -0.0806,-0.0558 -3.3863,0.3679 -7.3463,0.9419 -4.2741,0.6194 -13.1981,1.0681 -21.96,1.1041 -15.571,0.0638 -20.3488,-0.5624 -29.0072,-3.8018 -12.5836,-4.708 -27.2299,-19.3362 -34.7859,-34.7425 -1.9673,-4.0111 -2.113,-4.1332 -4.9372,-4.1415 -3.4134,-0.0113 -9.1865,-1.4493 -12.3241,-3.0727 -3.104,-1.6061 -7.1536,-6.2938 -8.297,-9.6046 -1.3845,-4.0088 -1.1878,-11.6014 0.3801,-14.6742 0.7072,-1.3861 2.7485,-4.0291 4.5357,-5.8733 l 3.2499,-3.3534 -1.9281,-2.528 c -1.3445,-1.7625 -2.4608,-4.8852 -3.6873,-10.3135 -0.9675,-4.282 -1.7592,-8.0343 -1.7592,-8.3384 0,-0.3042 -1.5565,-0.5531 -3.4591,-0.5531 -4.4544,0 -8.2537,-2.3748 -14.595,-9.1224 -11.2267,-11.9461 -16.2114,-24.681 -18.9752,-48.4776 -2.1035,-18.1114 -1.2155,-35.0022 2.8228,-53.6791 1.633,-7.5526 1.6696,-8.2207 0.6324,-11.5486 -1.5483,-4.968 -1.5644,-13.5037 -0.0343,-17.9323 2.5858,-7.4823 9.6333,-14.3385 19.6551,-19.1214 6.1456,-2.933 18.2821,-5.6262 27.9576,-6.2041 7.8052,-0.4663 7.9137,-0.4975 10.8,-3.1116 1.6035,-1.4525 4.5357,-3.725 6.5157,-5.0505 1.98,-1.3255 6.048,-4.5547 9.04,-7.1756 2.9919,-2.6212 6.5559,-5.1846 7.92,-5.6968 1.364,-0.512 3.1918,-1.2107 4.062,-1.5526 2.1042,-0.8265 3.5739,-3.2689 4.1593,-6.9108 0.4331,-2.6941 0.2571,-3.2114 -1.813,-5.3292 -5.5404,-5.6676 -5.5803,-12.6518 -0.1341,-23.4105 3.8446,-7.5945 9.2905,-11.3346 21.4095,-14.7021 10.2435,-2.8463 13.0666,-4.8271 28.7994,-20.2079 11.1813,-10.931 16.153,-15.236 22.227,-19.2478 17.0519,-11.2618 34.3171,-17.6585 51.9823,-19.2583 l 5.0922,-0.4612 2.8057,-7.6799 c 3.7089,-10.152 12.0719,-26.8918 17.6854,-35.4 6.2515,-9.4753 19.5389,-22.6919 26.0215,-25.8834 3.6555,-1.7997 5.2577,-2.2243 6.9709,-1.8482 4.5768,1.0052 4.7753,5.0035 0.6633,13.3696 -2.5653,5.2195 -2.9911,6.7456 -3.003,10.762 -0.017,5.8272 1.6611,10.0687 11.0234,27.8575 l 6.8309,12.9799 8.6491,0.4272 c 9.2812,0.4583 18.0252,1.7917 27.5799,4.2052 3.2843,0.8294 6.0622,1.3872 6.1736,1.2393 0.1114,-0.148 1.2722,-2.2131 2.5798,-4.5891 4.017,-7.2994 10.9287,-16.73 21.6352,-29.52 14.9831,-17.8988 15.8924,-19.4042 20.8786,-34.56 5.4107,-16.4466 9.0944,-22.68 13.4025,-22.68 2.3598,0 3.5299,2.1425 5.7089,10.4511 2.1569,8.2242 8.271,21.3126 12.841,27.4884 1.7013,2.2992 6.7915,7.9248 11.3113,12.5014 9.2104,9.3257 11.3783,12.7508 13.6058,21.4965 1.9726,7.7445 2.8803,9.4244 10.6942,19.7926 3.5524,4.7138 7.9226,11.3556 9.7115,14.76 4.8637,9.256 5.7549,13.4187 5.9511,27.7898 0.0918,6.732 0.4076,17.6519 0.7016,24.2662 0.5026,11.3049 0.6128,11.9843 1.8397,11.3278 2.6985,-1.4442 4.2426,4.1177 6.675,24.0463 0.572,4.6863 1.1917,8.6721 1.3773,8.8577 0.1854,0.1854 4.8294,-2.4511 10.3196,-5.8592 10.2685,-6.374 17.5345,-10.207 20.0625,-10.584 2.8295,-0.422 1.6766,6.4494 -3.8518,22.9587 -2.7601,8.2426 -5.1984,15.4726 -5.4187,16.0667 -0.229,0.6177 0.5908,2.219 1.9151,3.7406 l 2.3154,2.6606 10.8,-1.0187 c 19.4448,-1.8346 24.2492,-1.3598 22.9351,2.2663 -0.834,2.3014 -6.454,10.7393 -12.5107,18.784 -3.75,4.9808 -5.6328,8.0844 -5.3436,8.8087 2.033,5.0953 4.9039,15.215 6.2158,21.9118 l 1.5845,8.0873 7.5467,3.9197 c 8.1562,4.2364 11.6119,6.7062 11.6119,8.2993 0,1.3408 -4.1721,4.2536 -11.7743,8.2204 -5.4065,2.8211 -6.2507,3.5193 -6.5288,5.4 -0.1757,1.188 -0.7024,5.076 -1.1701,8.64 -0.468,3.564 -1.9763,10.8539 -3.352,16.2 -1.3756,5.3462 -2.6776,10.4763 -2.8936,11.4007 -0.3061,1.3119 0.3881,2.4968 3.1641,5.4 9.6899,10.1339 10.6222,12.0407 6.5347,13.3668 -1.287,0.4175 -5.8292,1.2047 -10.0936,1.7495 -4.2645,0.5448 -7.858,1.1194 -7.9852,1.2768 -0.1276,0.1576 -2.4106,4.9844 -5.0738,10.7262 -2.6631,5.7419 -6.7648,13.9329 -9.1148,18.2019 -2.3499,4.269 -4.2726,7.8834 -4.2726,8.0322 0,0.1488 1.6174,3.0186 3.594,6.3771 1.9769,3.3585 3.6777,6.8721 3.78,7.8078 0.186,1.7008 0.1848,1.701 -9.1222,1.9037 -8.6805,0.1888 -9.3832,0.3101 -10.4255,1.8 -4.4751,6.3967 -14.0859,17.4277 -21.8951,25.1309 l -9.2591,9.1332 2.7037,8.2151 c 1.5636,4.7508 2.4982,8.7505 2.2164,9.4853 -0.5734,1.4944 -1.491,1.381 -14.3158,-1.7723 l -8.4435,-2.076 -6.6765,4.5337 c -9.303,6.3176 -19.4768,12.1807 -28.3175,16.3193 l -7.5189,3.5198 -0.0607,7.7539 c -0.0734,9.373 -0.803,15.7459 -1.9321,16.8749 -0.9422,0.9425 -4.4787,-1.1996 -15.7841,-9.5607 l -6.6172,-4.8937 -7.4228,2.5248 c -9.1888,3.1255 -24.2,6.9761 -33.6283,8.6264 l -7.1169,1.2456 -2.6572,6.9086 c -3.869,10.0593 -7.7539,17.674 -9.1477,17.9311 -0.8326,0.1536 -2.8055,-2.0815 -6.3559,-7.2 z m -0.4116,-12.987 c -3.3358,-9.9901 -6.0653,-19.0547 -6.0653,-20.1433 0,-1.2894 0.5964,-2.37 1.7119,-3.1011 2.141,-1.4028 12.3253,-2.6138 14.6262,-1.739 3.0225,1.1492 3.0761,3.0175 0.5116,17.8413 -2.3054,13.3268 -3.8945,25.306 -3.3568,25.306 1.3652,0 13.8671,-32.6095 13.8671,-36.1701 0,-4.9057 -3.3726,-7.329 -11.6016,-8.3361 -5.6282,-0.6889 -12.2984,-0.1381 -16.4784,1.3609 -5.2534,1.8836 -9.36,5.193 -9.36,7.5433 0,1.8002 10.1064,18.9331 17.0722,28.9417 2.5495,3.6629 4.7484,6.66 4.8867,6.66 0.1383,0 -2.4778,-8.174 -5.8139,-18.1641 z m -73.7595,-8.4679 c 0.8451,-10.4845 1.9251,-19.8782 2.4004,-20.8752 1.1804,-2.4758 4.9825,-2.7133 11.0608,-0.6905 5.076,1.6892 7.4333,3.4719 7.4333,5.6222 0,0.7393 -3.5867,6.8145 -7.9705,13.5 -8.924,13.6103 -13.2726,21.0325 -12.6734,21.6318 0.58,0.5799 23.7597,-22.6863 25.5847,-25.6802 2.4514,-4.0212 2.0579,-6.9253 -1.3822,-10.1979 -7.9279,-7.5416 -24.3314,-11.471 -30.7386,-7.3633 -2.0078,1.2872 -2.1424,5.3784 -0.5366,16.31 1.3045,8.8803 4.7648,27.3271 5.0689,27.0229 0.1196,-0.1196 0.9085,-8.7953 1.7535,-19.2798 z m 159.7264,2.2337 c -0.9196,-1.1429 -6.4522,-7.9761 -12.2947,-15.1844 -5.8422,-7.2085 -10.8219,-13.9002 -11.0654,-14.8705 -0.6043,-2.4083 1.1611,-4.1976 7.0898,-7.1858 8.5634,-4.3164 10.5653,-3.2891 12.079,6.1993 1.1803,7.3976 5.6092,28.9897 6.3657,31.0354 0.576,1.5574 0.6446,1.5035 1.0508,-0.8246 0.7974,-4.572 1.4199,-27.0524 0.8867,-32.0303 -0.9261,-8.6477 -4.9204,-10.6345 -15.7606,-7.8398 -9.836,2.5359 -19.904,10.529 -19.904,15.802 0,2.2042 0.6567,2.9585 7.1716,8.2347 8.3883,6.7929 24.6036,18.7256 25.4605,18.7358 0.3257,0.003 -0.1604,-0.9283 -1.08,-2.0712 z M 209.0597,620.1269 c 19.2364,-5.7274 20.7669,-6.2895 23.1253,-8.4926 1.9233,-1.7966 2.0934,-2.3045 1.6667,-4.9736 -0.5606,-3.5071 -3.0642,-9.586 -4.4067,-10.7 -0.7398,-0.614 -0.8606,-0.4634 -0.5573,0.6962 0.8317,3.1799 -1.2254,4.9788 -21.0203,18.3801 -11.738,7.947 -13.2222,9.0224 -12.4515,9.0224 0.2401,0 6.38,-1.7694 13.644,-3.9322 z m -0.2983,-19.5335 c -0.7245,-0.7245 -7.1651,2.1906 -8.4509,3.8253 -1.292,1.6427 -4.8206,11.6022 -6.0658,17.1207 -0.2997,1.3278 2.4596,-2.2362 7.1597,-9.2477 4.2058,-6.2742 7.5166,-11.5384 7.357,-11.698 z m 125.0042,0.7237 c 34.8208,-4.3056 72.1582,-18.868 102.4739,-39.9674 29.2051,-20.3264 54.2503,-49.3231 69.2796,-80.2106 20.2087,-41.5318 26.8067,-83.9389 19.1557,-123.12 -2.4616,-12.6056 -8.6259,-29.0579 -12.5442,-33.48 l -1.595,-1.8 0.4691,2.88 c 0.2579,1.584 1.3918,5.796 2.52,9.36 8.8118,27.8431 11.594,50.2739 8.9938,72.5038 -4.4516,38.0537 -20.8338,77.8682 -43.9648,106.8488 -11.4208,14.309 -30.4866,32.1976 -45.6869,42.8658 -38.5939,27.0868 -91.7149,42.9619 -134.5923,40.2222 -15.7043,-1.0034 -23.874,-2.332 -40.2364,-6.5435 -4.4819,-1.1534 -9.5037,-2.0891 -11.16,-2.0789 l -3.0113,0.0198 3.96,2.5285 c 8.0331,5.1296 30.3404,10.0647 51.48,11.3896 7.2012,0.4513 25.4007,-0.2973 34.4586,-1.4173 z m -148.9385,-2.4965 c 19.2705,-1.6588 34.1277,-4.6369 44.0864,-8.837 8.6661,-3.655 15.5475,-8.3594 31.1536,-21.2984 4.3469,-3.604 4.2659,-3.4744 -4.0178,6.4142 -3.1513,3.7622 -6.1818,7.4234 -6.734,8.136 -1.1829,1.5265 -3.8049,2.5229 27.6718,-10.5125 23.0635,-9.5511 28.5713,-11.3726 47.1062,-15.577 l 11.8261,-2.6827 -7.3517,-2.0163 c -4.0433,-1.1089 -7.2422,-2.126 -7.1081,-2.2598 0.1341,-0.134 5.2486,0.2314 11.3658,0.8119 34.5625,3.2797 67.0807,1.5021 78.7215,-4.3033 5.7838,-2.8845 16.062,-11.647 21.1096,-17.9971 6.4406,-8.102 16.3386,-28.8922 22.9822,-48.2718 3.8608,-11.262 5.1834,-13.1825 2.6767,-3.8866 -2.7249,10.1052 -5.1052,16.7321 -9.0056,25.0727 -1.9324,4.1324 -3.4223,7.7871 -3.3109,8.1213 0.2506,0.7518 7.5166,-3.5711 12.6374,-7.5183 10.3436,-7.9733 31.2514,-33.3675 36.915,-44.8365 7.3452,-14.8736 8.8617,-37.5627 4.2988,-64.3073 -2.6997,-15.8224 -7.0546,-28.9681 -14.1441,-42.6949 -5.9955,-11.6084 -17.3905,-25.2399 -30.717,-36.7458 -2.6833,-2.3164 -4.587,-4.212 -4.2304,-4.212 3.1396,0 12.4137,5.2472 18.0912,10.2357 1.7722,1.5573 3.333,2.4987 3.4685,2.0919 0.572,-1.7164 -2.8607,-18.4544 -5.2486,-25.592 -5.9165,-17.6834 -13.7478,-32.1069 -24.3111,-44.7744 -3.596,-4.3126 -5.9159,-7.3672 -5.1548,-6.7881 3.964,3.0166 9.6959,7.844 12.7877,10.77 l 3.4837,3.2969 -1.2001,-2.88 c -0.6602,-1.584 -3.3007,-7.9018 -5.8675,-14.04 -12.5784,-30.077 -15.3873,-42.7104 -15.8476,-71.28 -0.3399,-21.098 0.4447,-23.4723 1.8411,-5.5709 2.7354,35.0691 7.1872,51.6101 22.4424,83.3885 5.9338,12.3604 6.4571,13.8109 6.8837,19.08 0.388,4.7931 0.8906,6.4488 3.1524,10.3824 4.7483,8.2588 6.5835,12.3551 9.3209,20.8032 l 2.6796,8.2695 0.4246,-7.1192 c 0.4893,-8.2018 -0.4368,-21.4585 -1.9568,-28.0131 -1.7742,-7.6496 -4.5011,-13.9181 -11.1251,-25.573 -9.7305,-17.121 -16.1717,-32.9242 -20.8862,-51.2439 -3.7812,-14.6928 -5.7793,-35.1417 -5.8672,-60.0438 -0.0456,-12.9251 -0.7738,-17.073 -3.0756,-17.5144 -3.1425,-0.6026 -6.0602,4.807 -11.5823,21.4744 -2.0336,6.1382 -4.8821,13.2662 -6.3298,15.84 -1.4479,2.5739 -7.4064,10.512 -13.2412,17.64 -10.4043,12.7103 -18.86,24.6396 -22.3778,31.5718 -0.9746,1.9204 -1.639,3.6246 -1.4763,3.7873 0.1627,0.1627 3.3403,1.7776 7.0614,3.5887 6.8581,3.3378 14.6361,8.4362 16.5373,10.8397 0.5732,0.7245 0,0.46 -1.2736,-0.5882 -22.3285,-18.3733 -73.9735,-23.2673 -112.5669,-10.6673 -17.0793,5.576 -35.8155,15.7073 -52.6972,28.4952 -6.3805,4.8334 -3.4597,1.9891 4.68,-4.5572 10.4797,-8.4283 19.5239,-14.2696 31.14,-20.1127 l 9.36,-4.7083 -12.6224,0.4121 c -22.3764,0.7305 -37.3989,4.8694 -55.4355,15.2728 -9.5275,5.4955 -16.3275,10.9483 -27.7758,22.2727 -5.8995,5.8357 -12.3435,11.7054 -14.3203,13.0442 l -3.5941,2.4341 0.2432,9.9895 c 0.3507,14.4006 -1.3566,21.0104 -7.5778,29.3335 l -2.6252,3.5121 2.6838,-2.52 c 1.476,-1.3861 6.1334,-8.028 10.3493,-14.76 8.6046,-13.7392 15.0735,-20.9701 23.8247,-26.6312 4.8815,-3.1578 24.9295,-13.3288 26.2726,-13.3288 0.3523,0 -1.6855,2.4486 -4.5281,5.4414 -6.9111,7.2754 -13.8999,16.7653 -17.1751,23.3215 -2.2921,4.5879 -2.675,6.044 -2.651,10.08 0.0199,3.1601 0.5134,5.7869 1.4976,7.9574 l 1.4695,3.24 0.5383,-6.12 c 0.2962,-3.3658 0.9629,-8.388 1.4816,-11.16 l 0.9434,-5.04 0.0919,6.84 c 0.0912,6.7853 1.2248,13.4527 2.7507,16.1793 0.7064,1.2623 0.8424,1.1036 1.2367,-1.4405 1.5356,-9.9111 3.4405,-14.2909 7.9759,-18.3391 1.7487,-1.5607 1.9378,-1.6086 1.4236,-0.36 -0.3263,0.792 -1.3539,3.6148 -2.2836,6.2728 -5.5531,15.8777 -0.6353,26.2089 13.1624,27.6512 7.8202,0.8175 13.9592,-1.336 38.0837,-13.3575 11.88,-5.9198 23.6682,-11.4482 26.1961,-12.285 5.5137,-1.8253 12.9957,-1.9789 19.0023,-0.3901 4.4141,1.1676 15.8814,6.1489 15.3587,6.6716 -0.1706,0.1707 -3.5972,-0.371 -7.6147,-1.2035 -4.0175,-0.8326 -7.6201,-1.3184 -8.0062,-1.08 -0.3858,0.2383 0.332,1.1372 1.5948,1.997 3.8988,2.6543 5.1956,5.0042 5.0491,9.1485 -0.1574,4.4476 -2.2516,8.833 -5.747,12.035 -3.4679,3.1768 -1.9593,2.9413 5.4765,-0.8557 3.4424,-1.7578 6.3837,-3.0708 6.5367,-2.918 0.6322,0.6321 -3.09,5.5451 -6.7028,8.8469 -4.0501,3.7015 -10.0666,6.4199 -18.7356,8.4648 -7.3593,1.736 -7.5373,1.0466 -0.3679,-1.4247 6.4522,-2.224 14.4,-5.8186 14.4,-6.5128 0,-0.1735 -2.1518,0.4943 -4.7818,1.4842 -9.6015,3.6139 -12.6541,4.0462 -31.9382,4.5224 l -18.36,0.4532 9,2.9971 c 19.0882,6.3567 40.271,9.5695 69.84,10.5928 3.7621,0.1301 -3.0421,0.1607 -15.12,0.0675 -34.3976,-0.2651 -45.7943,-2.2899 -72.195,-12.8265 -8.4067,-3.3551 -16.905,-6.4276 -18.885,-6.8273 -12.6828,-2.5611 -32.4952,-2.8111 -41.04,-0.5176 -5.1982,1.3952 -14.1885,5.5471 -17.5294,8.0955 -4.6662,3.5589 -1.2096,-0.7481 4.0606,-5.0599 6.0854,-4.9787 10.9026,-7.2164 18.8688,-8.7647 10.4066,-2.0228 11.1512,-2.5279 3.1669,-2.1492 -4.0003,0.1899 -8.3741,0.5303 -9.72,0.7566 -1.895,0.3186 -2.1785,0.2386 -1.2558,-0.3538 2.0333,-1.3062 9.3858,-2.8928 14.3439,-3.0954 l 4.7353,-0.1934 -2.8667,-3.6008 c -1.5766,-1.9806 -3.8486,-5.707 -5.0485,-8.2809 -2.8089,-6.025 -3.0365,-13.4903 -0.5786,-18.9887 1.9608,-4.3863 8.2676,-13.9606 12.6049,-19.1361 1.809,-2.1586 3.1543,-4.0598 2.9894,-4.2245 -0.4278,-0.4277 -12.1686,6.0029 -17.2908,9.4703 -7.5991,5.144 -13.7826,12.27 -21.7375,25.0503 -7.8389,12.5943 -11.1308,16.3755 -17.6632,20.2904 -4.121,2.4695 -4.121,2.4695 -2.6224,3.8239 0.8244,0.745 2.1603,2.2825 2.9688,3.4172 l 1.47,2.0628 -3.168,-2.2984 c -3.4512,-2.5035 -5.0289,-2.5789 -10.368,-0.4946 -1.584,0.6185 -4.2673,1.1387 -5.9627,1.156 -3.884,0.0397 -4.4342,1.2373 -2.749,5.9828 1.726,4.8597 0.9422,5.0924 -1.4145,0.4203 -3.0263,-5.9995 -3.5218,-6.1061 -7.687,-1.6531 -1.6869,1.8031 -6.2249,5.4139 -10.0848,8.0237 -8.3395,5.639 -9.4173,6.6977 -6.8173,6.6977 3.5716,0 24.7323,4.3169 30.1924,6.1594 10.0462,3.3903 17.1116,9.222 19.3351,15.9594 0.4904,1.4856 0.6976,4.646 0.4926,7.5095 -0.7047,9.8504 -6.442,18.1882 -25.6872,37.3317 -15.3644,15.2833 -24.0826,22.5604 -31.6718,26.4359 -4.8045,2.4537 -5.8762,2.7221 -10.8,2.706 -7.0433,-0.0227 -10.9213,-1.9704 -17.3843,-8.7284 -5.0454,-5.2756 -14.1911,-18.0692 -19.2127,-26.8759 -1.688,-2.9605 -3.0801,-5.0664 -3.0934,-4.68 -0.0142,0.3864 -0.5049,4.4286 -1.0922,8.9824 -0.5874,4.5542 -1.26,14.9222 -1.495,23.04 -0.6599,22.7872 2.0214,40.6576 7.8318,52.2 3.0002,5.9602 6.4452,11.2374 9.6849,14.8371 7.0815,7.8682 11.6779,9.004 18.3228,4.5281 4.8439,-3.2627 8.847,-5.3334 12.3208,-6.3723 l 2.7082,-0.8101 -1.8944,-2.4911 c -2.8692,-3.7732 -8.003,-14.9154 -9.2868,-20.1555 -0.7654,-3.1249 -1.2311,-9.1536 -1.4159,-18.3356 -0.1514,-7.524 -0.1327,-12.708 0.0419,-11.52 0.1746,1.188 0.8266,6.3575 1.4491,11.4883 1.5129,12.473 3.8897,21.4684 7.5124,28.4317 4.8693,9.3595 9.1576,12.1743 22.767,14.9437 5.4695,1.1129 10.0868,1.2915 32.6503,1.262 23.4238,-0.0306 27.3756,-0.2064 36.36,-1.6169 12.2111,-1.9171 22.477,-4.5952 26.9323,-7.0262 7.6824,-4.1919 18.8345,-15.5271 28.2761,-28.7405 6.0965,-8.532 18.2976,-23.9216 22.4785,-28.3527 4.8208,-5.1097 21.0872,-17.2567 27.0734,-20.2175 0.9898,-0.4896 -2.2989,3.1053 -7.3089,7.9886 -8.6468,8.4285 -17.3367,18.157 -15.0111,16.8052 0.5941,-0.3453 3.5243,-2.4769 6.5117,-4.7367 20.8219,-15.7499 40.1627,-23.9108 59.3513,-25.0433 l 7.903,-0.4663 -16.7261,-7.137 c -9.1993,-3.9255 -16.5839,-7.2794 -16.4098,-7.4535 1.0542,-1.0542 31.3325,7.1728 41.1857,11.1907 13.2934,5.4204 35.3458,19.5891 45.2985,29.1041 12.1617,11.6266 20.018,26.5326 23.0269,43.6898 2.1462,12.2364 1.3337,12.1193 -3.3752,-0.4864 -2.4103,-6.4525 -4.5127,-11.6016 -4.672,-11.4423 -0.1593,0.1593 0.2698,3.3327 0.9535,7.052 1.8896,10.2793 1.7269,31.0893 -0.3172,40.5397 -2.0364,9.4144 -6.1749,18.0156 -10.9814,22.822 -2.0211,2.0211 -3.8293,3.5209 -4.0178,3.3324 -0.1885,-0.1885 0.796,-2.2541 2.1875,-4.5898 3.0583,-5.1341 4.0326,-8.9017 2.3017,-8.9017 -0.6375,0 -2.7031,0.94 -4.5898,2.0886 -1.8871,1.1486 -4.9258,2.588 -6.753,3.1983 -11.2161,3.7466 -44.8381,5.3929 -84.8778,4.1565 -15.6421,-0.4831 -30.384,-1.0443 -32.76,-1.2473 -7.7579,-0.6624 -2.683,1.027 12.0178,4.0008 7.6461,1.5469 13.4163,2.8372 12.8222,2.8679 -0.5941,0.0306 -15.0058,-1.7201 -32.0261,-3.89 -43.3244,-5.5236 -55.2209,-6.4018 -79.5739,-5.8731 -35.5881,0.7724 -51.9871,3.6448 -62.7857,10.9978 -5.5579,3.7846 -6.5599,4.0918 -4.5113,1.3831 3.0906,-4.0862 1.0031,-4.703 -15.9551,-4.7146 -10.7972,-0.008 -11.6816,-0.1092 -12.6,-1.4477 -0.944,-1.3756 -1.105,-1.2795 -3.6258,2.1674 -5.8898,8.0535 -4.1718,17.445 3.9883,21.8007 3.9841,2.1265 12.7333,2.0936 21.5615,-0.0811 11.1308,-2.7419 17.7415,-3.1224 38.5804,-2.2207 24.2016,1.0474 46.152,0.559 52.6274,-1.1704 2.5739,-0.6874 9.601,-3.147 15.6155,-5.4652 13.4756,-5.1945 21.2454,-6.698 31.9045,-6.173 4.1579,0.2047 8.856,0.7929 10.44,1.3071 2.7967,0.9079 2.6303,0.9496 -5.76,1.4454 -11.4724,0.678 -16.4103,1.9187 -30.96,7.7791 -19.6035,7.8962 -21.6995,8.2902 -43.92,8.257 -10.296,-0.0142 -25.6858,-0.3878 -34.2,-0.8277 -17.0722,-0.8821 -24.2487,-0.4462 -32.3456,1.9653 l -5.1715,1.54 2.6827,4.8181 c 7.687,13.8058 19.1792,24.7697 30.3404,28.9457 10.3958,3.8897 24.5636,5.0799 42.294,3.5535 z m 242.028,-109.4445 c -1.4578,-36.9967 -10.2676,-58.1069 -32.0261,-76.7427 -25.1853,-21.5708 -59.4697,-34.094 -93.3378,-34.094 -19.7617,0 -34.2187,2.3792 -59.7841,9.8385 -8.712,2.5421 -16.2451,4.76 -16.74,4.9289 -1.7473,0.5967 -0.8475,-0.2701 4.049,-3.9002 9.7008,-7.1915 29.6728,-15.1308 48.509,-19.2838 5.048,-1.1129 9.1783,-2.1855 9.178,-2.3837 0,-0.4654 -10.8068,-9.7565 -15.4763,-13.3063 -3.6119,-2.7457 -2.6674,-2.981 2.16,-0.5386 6.3221,3.1986 21.1215,15.0284 20.0231,16.0049 -0.3206,0.2852 -3.4991,1.0701 -7.0628,1.7445 -10.2495,1.9392 -24.5525,5.7852 -32.5641,8.7562 -4.0501,1.5021 -7.2578,2.8369 -7.1283,2.9668 0.1298,0.1298 3.2817,-0.5656 7.0041,-1.5452 16.7213,-4.3997 30.2874,-6.1625 47.4248,-6.1625 23.2617,0 44.7817,5.0762 65.4707,15.4434 29.6339,14.8496 48.6317,34.4772 56.484,58.3566 4.193,12.7513 6.726,31.4115 5.8076,42.7844 -0.8796,10.8918 -1.4825,10.023 -1.9905,-2.8675 z m -352.694,0.6188 c -4.2176,-4.0337 -13.534,-19.0352 -13.534,-21.7931 0,-2.1844 1.6373,-0.1896 6.5605,7.994 5.569,9.2571 9.8396,14.3929 10.9996,13.2285 0.5318,-0.5341 0.7874,-5.2739 0.7625,-14.1429 -0.0459,-16.3165 1.0879,-15.217 1.5857,1.5377 0.3572,12.0198 -0.1446,14.8301 -2.7371,15.3292 -0.6341,0.1222 -2.2706,-0.8469 -3.6369,-2.1537 z m 60.986,-2.4662 c -7.7638,-1.529 -9.9074,-2.1583 -13.4892,-3.9611 -5.2413,-2.6379 -11.2266,-8.6043 -14.4902,-14.4439 -1.3969,-2.4996 -4.0492,-8.4326 -5.8946,-13.1846 -1.8454,-4.752 -3.5385,-9.098 -3.7627,-9.6582 -0.231,-0.5765 -0.0935,-0.8237 0.3166,-0.5703 0.3986,0.2463 3.373,5.7994 6.6101,12.3404 10.9106,22.0456 18.3549,27.0215 40.43,27.0243 17.8129,0.002 40.5,-4.3299 54.8592,-10.4757 3.2176,-1.377 6.1455,-2.4055 6.5066,-2.2853 0.8212,0.2739 -8.3846,9.1848 -9.4886,9.1848 -0.5846,0 -0.5948,-0.3977 -0.0372,-1.44 0.9683,-1.8093 0.8263,-1.8005 -5.9794,0.3731 -15.5681,4.972 -46.3873,8.9067 -55.5806,7.0962 z m 78.5333,-27.4615 c -0.504,-1.5879 2.2978,-13.2851 5.7113,-23.8441 2.4582,-7.604 3.8009,-10.3312 2.9658,-6.024 -0.8308,4.2846 -4.1672,20.0617 -4.5297,21.42 -0.2115,0.792 1.9346,-1.9488 4.769,-6.0908 2.8343,-4.1419 6.8873,-9.6499 9.0065,-12.24 4.8614,-5.9419 18.9301,-19.6863 24.1438,-23.5876 9.8153,-7.3446 22.4394,-12.3721 37.3992,-14.8941 7.7822,-1.3119 9.2109,-1.7254 7.2901,-2.1095 -3.9945,-0.7988 -12.5257,-0.5383 -20.9789,0.6406 -10.9848,1.5321 -12.1759,0.9961 -2.1104,-0.9496 15.4111,-2.9792 24.2728,-2.8454 31.6967,0.4785 3.5275,1.5794 3.2267,1.883 -2.5367,2.5611 -14.2554,1.6767 -28.0536,5.3203 -36.8824,9.7393 -15.4826,7.7493 -32.4901,24.2657 -45.6097,44.2924 -7.6819,11.7261 -7.7976,11.88 -8.9329,11.88 -0.5487,0 -1.1795,-0.5723 -1.4014,-1.2719 z m 253.4777,0.4944 c -0.1746,-0.5624 -0.8521,-3.9385 -1.5052,-7.5025 -3.1062,-16.9511 -7.0631,-28.5686 -14.5468,-42.7121 -2.5821,-4.8796 -4.5828,-8.9841 -4.4459,-9.1208 0.4743,-0.4742 9.5176,13.5187 12.2437,18.9454 3.4055,6.7788 6.5429,16.1104 8.8467,26.3129 0.9717,4.3038 1.9162,7.9744 2.0987,8.1569 0.631,0.631 7.5643,-8.8024 10.4831,-14.2628 3.6777,-6.8802 7.4313,-18.2568 9.5151,-28.8391 2.1319,-10.8272 2.1237,-23.6514 -0.0255,-38.6662 -0.8711,-6.0863 -1.4491,-11.2006 -1.2841,-11.3653 0.4345,-0.4345 3.0994,10.6696 4.1737,17.3911 1.3765,8.6128 1.1775,25.2692 -0.4003,33.48 -3.9699,20.6615 -11.3,36.1849 -21.9016,46.3825 -2.086,2.0067 -3.026,2.5268 -3.2519,1.8 z m -411.4857,-4.394 c -1.3385,-4.1077 -2.1744,-11.9123 -3.041,-28.4 -0.847,-16.1136 -0.5984,-21.1482 1.0446,-21.1482 1.5117,0 2.4542,1.3609 9.3161,13.4513 3.6368,6.4083 6.7022,11.5616 6.8116,11.4522 0.1094,-0.1094 -0.2905,-1.5862 -0.8886,-3.2819 -1.2586,-3.5671 -1.3363,-4.3419 -0.4357,-4.3419 0.6987,0 4.7945,10.7419 5.2149,13.6778 0.1635,1.1418 -0.129,1.8431 -0.8269,1.9822 -1.1279,0.2254 -4.6868,-5.1108 -12.9654,-19.4402 -2.4593,-4.2571 -4.6309,-7.74 -4.8254,-7.74 -0.4788,0 0.402,23.9896 1.3175,35.8871 0.4065,5.2838 0.5857,9.7606 0.398,9.9482 -0.1876,0.1877 -0.6913,-0.7336 -1.1194,-2.0471 z m 54.2594,-20.0035 c 0.2886,-0.4672 2.9069,-1.9349 5.8184,-3.2615 10.9687,-4.9987 20.9908,-12.5178 26.6479,-19.9931 4.2359,-5.5973 6.4874,-10.3697 11.0291,-23.379 1.9678,-5.637 4.492,-11.9285 5.6092,-13.9816 2.6135,-4.8036 7.281,-9.9777 11.5546,-12.8084 3.7933,-2.5126 11.4281,-5.1029 14.8521,-5.0388 1.8527,0.0346 1.3847,0.3469 -2.5739,1.7186 -6.9165,2.3967 -10.5329,4.7285 -15.3822,9.9184 -5.2792,5.6503 -7.9563,10.6291 -12.9761,24.1331 -2.1609,5.8133 -5.1052,12.6887 -6.543,15.2787 -5.0337,9.0675 -17.7463,20.0089 -29.2385,25.1649 -5.4992,2.4672 -9.5768,3.5095 -8.7976,2.2487 z m 306.3753,-41.8612 c -29.861,-19.0514 -42.1109,-24.9256 -63.5811,-30.488 -16.3976,-4.2483 -28.3473,-6.2252 -48.1651,-7.9682 -6.7944,-0.5976 -12.4827,-1.2155 -12.6403,-1.3734 -0.8926,-0.8926 12.0983,-1.2889 30.0662,-0.9176 30.8194,0.6372 46.0477,2.8273 69.48,9.9916 7.8143,2.3893 22.2064,7.7859 21.8129,8.1793 -0.1338,0.1338 -8.9439,-1.5185 -19.5777,-3.672 -10.6339,-2.1534 -19.6991,-3.9055 -20.1447,-3.8936 -0.4456,0.0113 4.0495,2.5296 9.9895,5.595 12.5122,6.457 20.7037,11.5452 28.8,17.8894 6.9985,5.484 14.6665,12.445 13.68,12.4189 -0.396,-0.0113 -4.7701,-2.603 -9.72,-5.7611 z m -149.1749,0.3044 c 0.5199,-0.208 1.1407,-0.1822 1.3799,0.0567 0.2392,0.2393 -0.186,0.4094 -0.9451,0.3782 -0.8387,-0.0346 -1.0094,-0.2053 -0.4351,-0.4351 z m -62.1451,-15.7269 c 7.8662,-6.597 19.527,-13.1655 27.54,-15.5128 3.2647,-0.9565 3.8393,-1.7 1.8,-2.3293 -0.6931,-0.2137 -4.5502,-1.5225 -8.5711,-2.908 -11.8596,-4.0865 -19.5769,-5.0497 -37.0868,-4.6293 -8.2511,0.1981 -15.0021,0.2543 -15.0021,0.1244 0,-1.4385 13.3815,-4.2539 23.7898,-5.0054 8.14,-0.5876 16.8505,0.4241 25.6807,2.9832 6.8327,1.98 27.5695,10.2736 27.5695,11.0262 0,0.2591 -2.3491,1.0678 -5.22,1.7972 -13.396,3.4027 -22.3602,6.599 -31.6618,11.2898 -5.4352,2.7408 -10.133,4.9816 -10.44,4.9796 -0.307,-0.002 0.4138,-0.8186 1.6018,-1.815 z m 27.72,-36.4481 c -31.4283,-11.5101 -45.5797,-11.6669 -74.0372,-0.8204 -5.6747,2.1629 -10.4624,3.7874 -10.6396,3.6102 -0.4654,-0.4654 3.7636,-3.5614 8.3571,-6.118 2.1781,-1.2124 6.7677,-3.1844 10.1993,-4.3829 17.5723,-6.1362 32.724,-6.2365 50.6407,-0.3353 9.1565,3.0157 30.4418,12.4166 28.08,12.4015 -0.396,-0.002 -6.0661,-1.9624 -12.6,-4.3554 z m 110.7241,-28.6416 c 6.6274,-4.2043 21.8996,-10.9613 26.7959,-11.855 1.7309,-0.3161 1.1673,0.0655 -1.8,1.2177 -2.376,0.9227 -5.616,2.4007 -7.2,3.2843 -2.6444,1.4751 -2.7034,1.5695 -0.72,1.154 1.188,-0.2489 10.584,-0.5571 20.88,-0.6846 l 18.72,-0.2322 -13.32,0.6526 c -7.3258,0.3588 -16.56,1.1214 -20.52,1.6939 -6.1495,0.8896 -9.9822,1.8301 -23.4,5.7442 -1.4882,0.434 -1.3907,0.2653 0.5641,-0.9749 z m -27.9241,-1.9635 c 0,-2.6306 8.3858,-8.396 14.4,-9.9003 0.9899,-0.2478 0.127,0.3342 -1.9179,1.2929 -4.1856,1.9624 -10.0159,5.8632 -7.8021,5.2197 0.792,-0.2302 4.1942,-1.3754 7.56,-2.5449 3.3659,-1.1696 7.74,-2.3199 9.72,-2.5563 3.3321,-0.398 3.225,-0.3269 -1.44,0.9552 -6.5732,1.8066 -14.3844,4.7761 -17.2944,6.5744 -2.4344,1.5047 -3.2256,1.7399 -3.2256,0.959 z m 4.1851,-11.5399 c 0.5199,-0.208 1.1407,-0.1822 1.3799,0.0567 0.2392,0.2393 -0.186,0.4094 -0.9451,0.3782 -0.8387,-0.0346 -1.0094,-0.2053 -0.4351,-0.4349 z m 39.3871,-9.7789 c 3.7551,-7.0589 5.3402,-13.193 5.4391,-21.0493 0.0613,-4.8517 0.1857,-5.4192 0.7906,-3.6 1.1186,3.3653 0.9632,12.5298 -0.29,17.1 -0.6242,2.2771 -0.8671,4.14 -0.5394,4.14 0.3277,0 1.7356,-1.332 3.1292,-2.9599 2.9304,-3.4237 4.0586,-7.6238 4.0586,-15.1106 v -5.0397 l 4.86,4.9033 c 7.9364,8.007 14.9389,12.0206 35.82,20.5314 l 12.24,4.9887 -5.76,-0.4635 c -26.045,-2.0962 -45.2786,-1.5625 -56.16,1.5585 -0.792,0.227 0.18,-0.7024 2.16,-2.0656 3.3531,-2.3086 8.28,-8.3676 8.28,-10.1826 0,-0.4388 -2.0251,1.1712 -4.5,3.5781 -4.5921,4.4654 -11.0877,9.6225 -12.1204,9.6225 -0.3152,0 0.8513,-2.6779 2.5926,-5.9508 z m 77.2954,-28.6665 c -5.6395,-6.2498 -14.5579,-14.1562 -24.0593,-21.3293 -18.7487,-14.1542 -34.615,-21.5546 -51.5271,-24.0335 -7.7227,-1.1319 -8.8421,-2.1034 -2.4052,-2.0875 21.0348,0.0525 50.6001,16.1691 74.2147,40.4558 6.607,6.7949 10.2745,11.6867 9.4099,12.551 -0.1791,0.1791 -2.7139,-2.3216 -5.633,-5.5565 z M 241.727,260.9444 c 4.2638,-2.8669 19.0652,-11.0058 26.2601,-14.4399 15.6614,-7.4753 24.3635,-9.4655 38.8488,-8.8852 14.7969,0.5927 27.6089,4.4983 36.0312,10.9839 2.8415,2.1878 2.8925,2.2014 -3.8928,-1.0199 -9.9729,-4.7344 -22.985,-6.9448 -37.4848,-6.368 -14.3393,0.5706 -21.251,2.6838 -45.5754,13.9343 -14.2163,6.5752 -17.1,7.7533 -14.1871,5.7946 z m 248.68,334.7669 c -0.165,-0.1474 -7.59,-4.2222 -16.4999,-9.0553 -16.9693,-9.2049 -20.5381,-11.8491 -19.5599,-14.4935 0.8232,-2.2252 7.1711,-9.7002 9.1262,-10.7465 3.3576,-1.7969 4.9158,-0.5261 10.8141,8.8183 7.0373,11.1487 16.2902,24.4344 16.7191,24.0055 1.0831,-1.0831 -11.5617,-32.8549 -14.2002,-35.6794 -2.7164,-2.9081 -6.2552,-2.9341 -11.1796,-0.0828 -7.6456,4.4272 -13.2576,10.9803 -15.732,18.3702 -1.7433,5.2067 -1.5522,6.6915 1.0659,8.2834 3.7374,2.2729 41.4799,12.3962 39.4463,10.5804 z m 38.5801,-56.6963 c -21.5181,-6.4287 -31.028,-9.4547 -31.8464,-10.1339 -1.5417,-1.2796 -1.023,-4.8552 1.3504,-9.3084 3.2877,-6.1679 5.2552,-8.0895 7.6666,-7.4872 1.1923,0.298 7.3423,5.8153 15.8344,14.2053 7.6368,7.5453 14.0703,13.5329 14.2971,13.3061 0.568,-0.568 -6.3743,-12.0583 -13.5689,-22.4578 -8.9603,-12.9512 -11.865,-13.7454 -20.0132,-5.472 -6.3876,6.486 -9.5051,12.8628 -9.9371,20.3279 -0.3002,5.1837 -0.2166,5.5819 1.389,6.624 2.2147,1.4374 13.9682,2.4205 29.7881,2.4919 l 12.24,0.0553 -7.2,-2.151 z m -432.076,-8.4328 c 0.203,-0.3283 -0.0569,-2.0293 -0.5774,-3.78 -0.5204,-1.7507 -1.18,-5.603 -1.4658,-8.5607 -0.5244,-5.43 -1.3342,-7.9421 -2.5608,-7.9421 -1.54,0 -1.9947,2.7343 -1.4131,8.4983 0.7376,7.3077 2.5195,12.3817 4.3484,12.3817 0.7149,0 1.4658,-0.2687 1.6687,-0.5969 z m 10.4086,-0.1933 c 1.2472,-0.4349 2.2674,-0.87 2.2674,-0.9672 0,-0.0973 -0.648,-2.0603 -1.44,-4.3623 -0.792,-2.302 -1.44,-4.6207 -1.44,-5.1528 0,-2.1158 1.3113,-0.7574 3.0626,3.1728 1.8045,4.0496 1.8465,4.0859 1.9111,1.6674 0.1497,-5.5973 -5.5108,-12.3707 -8.3614,-10.0049 -1.9221,1.5953 -0.5062,16.4375 1.5682,16.4375 0.0904,0 1.1848,-0.3557 2.4318,-0.7903 z m 24.4066,-1.484 c 2.1997,-1.3561 2.3108,-1.6211 1.8646,-4.4439 -0.6803,-4.303 -0.6778,-4.4047 0.1162,-4.8019 0.396,-0.1981 1.1092,1.2172 1.5852,3.1451 1.3147,5.3271 1.7427,4.9408 1.508,-1.3618 l -0.2132,-5.7228 -2.863,-0.4632 c -2.0959,-0.3393 -3.4942,-1.194 -5.22,-3.1901 -1.2965,-1.4998 -2.5616,-2.5226 -2.8114,-2.2726 -0.8005,0.8005 -1.1854,10.2595 -0.65,15.9733 l 0.5188,5.5346 1.9128,-0.4773 c 1.0519,-0.2625 2.9656,-1.1263 4.252,-1.9194 z m -29.6014,-0.4258 c -0.2367,-1.089 -0.6463,-4.4909 -0.9108,-7.56 -0.4748,-5.5133 -0.5045,-5.58 -2.4913,-5.58 -1.1061,0 -2.1875,0.2861 -2.4038,0.6356 -0.5956,0.9638 1.0029,12.5067 1.8782,13.5612 0.4213,0.5077 1.5741,0.923 2.562,0.923 1.5834,0 1.745,-0.2342 1.3657,-1.98 z m 18.5899,1.3125 c 0.2271,-0.3671 -0.2398,-2.3233 -1.0375,-4.3467 -2.7343,-6.9369 -1.2464,-8.0651 2.1702,-1.6458 l 2.2034,4.14 -0.4085,-5.3464 c -0.2248,-2.9406 -0.7047,-5.703 -1.0664,-6.139 -0.3617,-0.4359 -1.8932,-1.2277 -3.4032,-1.7597 -1.5101,-0.5321 -3.4311,-1.592 -4.2687,-2.3556 -1.5197,-1.3853 -1.5242,-1.3833 -1.98,0.896 -0.2515,1.2563 -0.457,5.3059 -0.457,8.9986 0,5.635 0.2024,6.8321 1.26,7.448 1.5857,0.9236 6.4375,1.0001 6.9877,0.11 z M 90.235,524.2133 c -0.8487,-1.4596 -1.0536,-0.9924 -0.3589,0.8181 0.2469,0.6434 0.6007,1.0182 0.7861,0.8328 0.1854,-0.1854 -0.0057,-0.9284 -0.4272,-1.6512 z m 56.7813,0.7849 c 0.4371,-0.4371 0.3099,-2.1209 -0.3492,-4.6188 -0.6701,-2.5398 -0.7897,-4.1782 -0.3384,-4.6295 0.3841,-0.3841 0.7075,-0.5528 0.7188,-0.3745 0.0114,0.1783 0.6188,2.1062 1.3502,4.284 1.2577,3.7452 1.4547,3.9541 3.6314,3.8483 1.266,-0.0615 2.4815,-0.2914 2.7012,-0.511 0.2197,-0.2197 -0.9312,-1.9885 -2.5574,-3.9311 -1.6263,-1.9423 -4.3016,-5.7623 -5.9452,-8.4889 -1.6435,-2.7264 -3.0809,-5.0653 -3.194,-5.1971 -0.1131,-0.1318 -0.9071,1.3261 -1.7643,3.24 -1.7609,3.9314 -3.5705,11.6286 -3.5892,15.2663 l -0.0114,2.4264 4.3308,-0.3132 c 2.3819,-0.1723 4.6403,-0.6228 5.0184,-1.0009 z m 148.0828,-2.3145 c 5.8399,-3.0143 7.9753,-7.8653 6.7663,-15.372 -0.834,-5.1786 -3.3313,-10.6509 -7.1087,-15.5775 -10.7504,-14.0204 -14.1327,-18.1131 -14.5696,-17.6295 -0.2755,0.305 -1.3963,3.3086 -2.4902,6.6744 -1.0942,3.3659 -3.4367,9.1979 -5.2058,12.96 -3.4693,7.3775 -5.2041,12.7704 -5.2112,16.2 -0.0142,6.4775 3.7763,11.6927 9.928,13.6619 4.8637,1.5568 14.0055,1.0879 17.8912,-0.9176 z m -5.5262,-8.202 c -0.0255,-10.7141 -1.5273,-17.2077 -8.2102,-35.5026 -1.2104,-3.3131 3.8455,3.612 6.9871,9.5704 5.6653,10.745 6.9622,19.381 4.0708,27.1088 -0.8175,2.1853 -1.7895,4.1607 -2.16,4.3895 -0.3968,0.2452 -0.6792,-2.041 -0.6877,-5.5664 z m -34.2096,8.816 c 0.6548,-1.0596 -1.5239,-14.2903 -4.5417,-27.5786 -1.5063,-6.633 -2.6175,-12.06 -2.4695,-12.06 0.7265,0 8.8685,17.993 9.5233,21.0456 0.4135,1.9281 0.7517,7.0534 0.7517,11.3902 0,7.4236 0.0848,7.8845 1.4505,7.8845 1.8746,0 4.036,-3.5589 5.1299,-8.4469 1.6843,-7.5263 -1.5319,-14.6013 -13.2565,-29.1623 -5.0752,-6.3031 -7.9416,-8.8659 -9.1089,-8.1445 -0.3435,0.2123 -0.86,3.0495 -1.1483,6.3054 -0.5749,6.4939 -2.0886,12.2975 -4.9368,18.9286 -1.4114,3.2859 -1.8598,5.5585 -1.8726,9.4932 -0.0292,8.843 0.2449,9.1219 10.063,10.2303 7.6785,0.8671 9.936,0.8918 10.4162,0.1151 z m 71.4872,-1.3881 c 1.6274,-0.8303 3.1343,-1.7932 3.3486,-2.1402 0.2143,-0.3467 -0.9788,0.0536 -2.6513,0.8898 -2.4828,1.2413 -4.3494,1.5194 -10.1746,1.5157 -6.7045,-0.006 -6.9648,0.049 -4.32,0.8878 3.8222,1.2118 10.2075,0.6783 13.797,-1.1531 z m -165.5504,-0.6305 c 0.3541,-0.693 1.2036,-4.9861 1.8882,-9.54 1.5443,-10.2761 1.6798,-10.7603 2.611,-9.3398 0.8467,1.2914 0.047,8.7585 -1.9151,17.8826 l -0.3662,1.7031 7.5761,-0.2804 c 4.3535,-0.161 7.9265,-0.631 8.4002,-1.1046 0.9507,-0.9508 -1.3258,-13.5627 -3.5104,-19.4502 -1.213,-3.2684 -1.4505,-3.4764 -4.4986,-3.9357 -1.77,-0.2667 -4.3056,-0.3052 -5.6344,-0.0856 -3.1139,0.5151 -3.8801,2.3233 -6.5231,15.3973 l -2.0242,10.0133 1.6764,3e-4 c 0.9221,0 1.9661,-0.5669 2.3201,-1.26 z m 68.383,0.396 c 1.3898,-1.3898 1.0148,-3.9486 -1.3861,-9.4552 -3.2134,-7.3701 -7.6028,-14.8068 -10.5891,-17.9408 -2.2813,-2.3941 -2.9679,-2.7 -6.0596,-2.7 -4.8473,0 -6.7363,1.9636 -7.3543,7.6434 -0.2534,2.3301 -0.9884,7.7309 -1.633,12.0016 -1.0156,6.7283 -1.0346,7.8942 -0.1431,8.7313 1.1315,1.0621 14.1964,2.1529 15.4887,1.2929 2.3151,-1.5407 1.5557,-6.6858 -3.0305,-20.5348 -1.4181,-4.282 -2.3873,-7.9764 -2.1537,-8.2097 0.9737,-0.9737 8.5073,16.4543 9.7358,22.523 0.6891,3.4038 1.7156,6.4817 2.2811,6.8394 1.4533,0.9196 3.8267,0.826 4.8441,-0.1913 z m -140.256,-5.5468 c 0,-3.9716 0.2696,-5.1298 1.44,-6.1892 1.652,-1.4952 1.7396,-2.4919 0.6605,-7.5245 -0.8603,-4.0119 -1.9219,-4.5397 -4.2041,-2.09 -1.9318,2.0735 -2.5877,7.0965 -1.6752,12.8259 1.5363,9.6443 3.7788,11.4115 3.7788,2.9778 z m 106.5263,4.5097 c 1.5905,-0.3181 2.5296,-1.0443 3.0257,-2.34 1.0774,-2.8131 3.399,-14.2223 3.935,-19.3389 0.4686,-4.4702 0.4595,-4.5 -1.3705,-4.5 -1.7527,0 -1.8627,0.2362 -2.2632,4.86 -0.5539,6.3933 -1.8462,15.8829 -2.3374,17.1633 -0.9667,2.5191 -1.4925,0.403 -1.855,-7.4668 -0.2396,-5.1996 -0.8238,-9.5196 -1.5092,-11.16 -1.1151,-2.6694 -1.1302,-2.6765 -5.4607,-2.6765 -5.182,0 -10.1313,1.7521 -10.1313,3.5864 0,2.505 5.7609,19.2308 7.0073,20.3449 1.9111,1.7078 6.7116,2.3771 10.959,1.5276 z m -39.7746,-3.231 c 1.0712,-2.1946 3.0883,-13.4821 3.0883,-17.282 v -2.7856 l -5.4,-3e-4 c -6.3419,0 -6.3331,-0.017 -3.96,8.28 1.6064,5.6178 1.679,6.12 0.8827,6.12 -0.3064,0 -1.4754,-2.5109 -2.5979,-5.58 -2.2862,-6.2503 -3.7024,-8.82 -4.8614,-8.82 -2.268,0 3.6025,14.3272 8.0526,19.6535 2.5149,3.0098 3.4878,3.0937 4.7957,0.4144 z m 201.2108,1.5103 c 1.4533,-0.4036 3.3973,-1.3719 4.32,-2.152 1.5908,-1.3448 1.4935,-1.3388 -1.8749,0.1102 -3.0191,1.2989 -4.5053,1.474 -9.9,1.1665 -3.4911,-0.199 -6.3473,-0.25 -6.3473,-0.1128 0,0.1369 1.0531,0.553 2.34,0.9246 3.1904,0.9213 8.2732,0.9493 11.4625,0.0635 z m -27.811,-2.1866 c 9.6599,-4.97 8.9756,-17.0147 -1.8873,-33.209 -3.3568,-5.0043 -12.3316,-16.4211 -12.9096,-16.422 -0.2009,-3e-4 -1.1114,2.6725 -2.0239,5.9394 -0.9122,3.267 -2.8913,8.856 -4.3982,12.42 -4.6874,11.0872 -5.2994,13.5695 -4.9454,20.0642 0.3674,6.7366 1.7156,9.9168 5.1075,12.0473 2.0049,1.2594 3.2936,1.4184 9.8966,1.2217 6.4528,-0.1922 8.1269,-0.5014 11.16,-2.0619 z m -4.7115,-8.1372 c 0,-9.305 -2.5679,-19.4896 -8.1932,-32.4944 l -1.8686,-4.32 2.6909,2.9742 c 3.3562,3.7094 6.9505,9.6514 9.4025,15.5452 1.5761,3.7879 1.8819,5.6296 1.8876,11.3606 0.006,5.1566 -0.3039,7.416 -1.2546,9.18 -0.6939,1.287 -1.5772,2.34 -1.963,2.34 -0.3858,0 -0.7016,-2.0636 -0.7016,-4.5856 z m 63.2174,5.6413 c 2.0455,-0.6075 4.6151,-1.9043 5.7107,-2.8817 1.9488,-1.7388 1.914,-1.7343 -1.6081,0.2043 -3.2145,1.7694 -4.3103,1.9778 -10.2353,1.9463 -3.6493,-0.0198 -6.5464,0.0539 -6.4372,0.1627 0.3384,0.3385 5.7931,1.5242 7.3621,1.6005 0.8192,0.0397 3.1629,-0.4247 5.2081,-1.0321 z m -248.4603,-3.8401 c 0.5952,-1.4244 1.2546,-5.1066 1.4655,-8.1825 0.3829,-5.5874 0.3815,-5.5928 -1.4159,-5.5928 -1.7337,0 -1.8176,0.2169 -2.2944,5.9355 -0.7866,9.4328 -2.0693,8.8075 -2.8939,-1.4111 -0.1667,-2.0656 -0.5102,-4.0907 -0.7631,-4.5 -0.2528,-0.4093 -2.1075,-0.7444 -4.1215,-0.7444 l -3.6616,-3e-4 0.3963,5.22 c 0.218,2.871 0.9295,6.5515 1.5815,8.1786 2.3836,5.9496 9.4048,6.6072 11.7071,1.097 z m 222.8771,2.4919 c 4.7137,-2.3006 5.9258,-4.8206 5.9258,-12.3191 0,-6.2436 -0.1264,-6.7527 -3.3091,-13.32 -2.8367,-5.8532 -16.1309,-25.103 -16.8225,-24.3586 -0.9485,1.0204 -9.7886,25.6609 -10.4953,29.2549 -1.1736,5.9667 -0.5805,16.7607 1.0579,19.2617 1.8292,2.7916 3.6153,3.2156 12.649,3.0019 6.2745,-0.1485 8.9374,-0.5168 10.9942,-1.5205 z m -2.5387,-3.0234 c -0.2532,-0.4093 -0.8124,-4.2078 -1.243,-8.4405 -0.8257,-8.1184 -2.7867,-15.8303 -6.427,-25.2756 -1.2107,-3.1417 -2.0591,-5.8547 -1.8848,-6.0288 0.1741,-0.174 2.6122,3.2063 5.4179,7.5121 6.6881,10.2637 8.4705,15.776 7.4157,22.9323 -0.8169,5.544 -2.5546,10.4723 -3.2791,9.3005 z m -257.8227,3.2751 c 0.5347,-0.5346 0.3717,-2.6229 -0.5476,-7.02 -0.7197,-3.4424 -1.3212,-7.1501 -1.3368,-8.2392 -0.0255,-1.7064 -0.3221,-1.98 -2.1546,-1.98 -3.3951,0 -5.7941,1.4208 -5.7941,3.4317 0,1.9749 1.8057,9.5615 2.996,12.5883 0.6528,1.66 1.2067,1.98 3.4273,1.98 1.4568,0 2.9912,-0.3424 3.4096,-0.7608 z m 9.3272,-1.0601 c 0.9311,-1.4213 1.0879,-2.7173 0.7134,-5.9032 -0.2639,-2.245 -0.6491,-4.2511 -0.8557,-4.458 -0.5959,-0.5959 -1.7147,1.5828 -1.7266,3.3621 -0.006,0.891 -0.3223,1.62 -0.703,1.62 -0.3807,0 -0.7855,-2.8006 -0.9,-6.224 -0.2293,-6.8607 -0.9632,-8.0552 -4.4167,-7.1884 -1.766,0.4434 -1.9105,0.7662 -1.8989,4.2461 0.017,5.1193 1.8485,13.4024 3.3236,15.0326 1.7773,1.9639 5.0176,1.7195 6.4639,-0.4875 z m 11.8,-0.3391 c 1.256,-1.256 1.44,-2.4 1.44,-8.9574 0,-4.1346 -0.3075,-7.7077 -0.6837,-7.9402 -0.6749,-0.4172 -0.894,0.4848 -2.0041,8.2576 -0.3112,2.1782 -0.8867,3.8824 -1.279,3.7877 -0.3923,-0.095 -0.8753,-3.011 -1.0732,-6.48 l -0.36,-6.3077 -2.7502,-0.2264 c -3.9313,-0.3238 -4.6187,0.5459 -4.2959,5.4351 0.4034,6.109 1.5517,10.4202 3.263,12.2513 1.9403,2.0761 5.7583,2.1649 7.7431,0.18 z m 109.2254,-2.7439 c 4.6443,-6.2818 8.1346,-16.3993 8.1346,-23.5811 0,-4.9255 -1.3513,-13.275 -2.1484,-13.275 -0.3084,0 -1.4127,1.1175 -2.4545,2.4832 -1.7515,2.2966 -1.8606,2.8508 -1.4499,7.38 0.2948,3.2508 0.0298,7.3049 -0.7877,12.06 -1.6155,9.3954 -2.4098,11.3624 -2.4866,6.1571 -0.0768,-5.2055 -1.2611,-16.355 -1.8363,-17.2854 -0.2642,-0.4277 -1.7059,0.2773 -3.4645,1.694 -1.6566,1.3346 -4.551,3.3134 -6.4321,4.3974 -3.5844,2.0656 -4.1145,2.8534 -2.37,3.5229 0.5774,0.2217 2.2504,2.2813 3.7179,4.5771 7.5889,11.8741 8.9705,13.894 9.5026,13.894 0.3183,0 1.2523,-0.9107 2.0752,-2.0239 z m 159.3346,-0.4425 c 6.5052,-3.35 8.9275,-7.3669 8.9331,-14.8133 0.006,-6.599 -2.0353,-13.6179 -5.8501,-20.1248 -3.1187,-5.3195 -14.3385,-17.1479 -15.3272,-16.1592 -0.8935,0.8935 -7.5393,17.1754 -9.1177,22.3373 -0.9946,3.2533 -1.2673,6.3958 -1.184,13.6488 0.174,15.1622 1.7359,17.0813 13.5456,16.647 4.4436,-0.1632 7.272,-0.6463 9,-1.5361 z m -0.3668,-8.8636 c -2.0038,-17.589 -4.1051,-26.0277 -8.6525,-34.7497 l -2.44,-4.68 3.0331,3.3795 c 9.6638,10.7677 14.286,25.8058 10.9859,35.7415 -0.6763,2.0361 -1.5049,3.8724 -1.8417,4.0802 -0.3364,0.208 -0.8246,-1.4894 -1.0845,-3.7715 z m -121.5677,-3.2267 c 4.2494,-6.3454 8.1433,-18.9502 8.1637,-26.4266 0.006,-2.4457 -0.6343,-5.538 -1.7166,-8.28 -0.9499,-2.4071 -1.9573,-5.8345 -2.2383,-7.6164 -0.7883,-4.9974 -4.2403,-7.92 -9.3543,-7.92 -4.9941,0 -10.2594,4.0785 -17.0441,13.2024 -3.7256,5.0099 -4.1959,6.0233 -4.1959,9.0425 0,3.9867 2.2456,8.0958 10.2439,18.7461 6.3022,8.392 11.0075,13.1811 12.6445,12.8696 0.6774,-0.129 2.2512,-1.7567 3.4971,-3.6173 z m -2.5484,-7.7633 c -0.1732,-12.9186 -1.9944,-26.7462 -4.6837,-35.5628 l -1.0746,-3.5229 2.5112,2.4341 c 4.1913,4.0623 6.2915,9.284 6.6365,16.5007 0.3093,6.4678 -0.6273,15.446 -2.327,22.3112 l -0.9805,3.96 z m 36.5638,1.0602 c 6.825,-7.7732 11.1478,-26.4997 8.7611,-37.9528 -1.1897,-5.7095 -4.5638,-10.4782 -9.0261,-12.757 -2.9509,-1.5069 -4.4972,-1.8108 -8.7559,-1.7198 -15.3389,0.3271 -22.476,7.6122 -19.3819,19.783 2.0058,7.8897 13.9751,28.0944 19.3878,32.7277 3.7942,3.2476 6.1107,3.2267 9.0147,-0.0808 z m -3.02,-5.3802 c -0.2684,-2.1781 -0.4929,-7.2 -0.4989,-11.16 -0.0113,-8.6519 -1.4508,-18.6891 -3.8684,-26.9968 -0.9791,-3.3642 -1.6952,-6.2017 -1.5914,-6.3054 0.1037,-0.1038 1.2932,0.5536 2.643,1.461 3.2139,2.16 6.859,8.3293 7.9152,13.3973 1.3649,6.5492 0.0113,19.5421 -3.1589,30.3239 l -0.9528,3.24 z m 257.2591,2.5297 c 4.5542,-0.6514 8.5879,-1.4871 8.964,-1.857 0.4292,-0.4221 0.2951,-0.6701 -0.36,-0.6656 -3.3534,0.0227 -41.5185,-5.3416 -42.264,-5.9402 -1.4224,-1.143 -1.0298,-4.1111 1.2512,-9.4587 2.5002,-5.8615 3.9563,-7.6482 6.234,-7.6482 0.9249,0 5.6537,2.7 10.5083,6.0001 8.6301,5.8666 21.2785,13.9794 24.3981,15.6487 l 1.5653,0.8376 -1.6249,-2.2816 c -2.5628,-3.5991 -21.2643,-22.6343 -24.3138,-24.7476 -1.5149,-1.0496 -3.8129,-2.1203 -5.1072,-2.3791 -2.1175,-0.4235 -2.668,-0.1423 -5.4938,2.8069 -5.8286,6.0829 -11.3137,20.6697 -10.135,26.9524 0.8146,4.3426 2.1265,4.697 15.8581,4.2843 6.732,-0.2024 15.9659,-0.9009 20.52,-1.5523 z M 337.3963,482.582 c 4.9217,-4.5615 9.8234,-19.5594 9.9068,-30.312 0.0858,-11.0889 -2.977,-17.8078 -9.7257,-21.3358 -6.4817,-3.3883 -20.1898,-1.3255 -25.0348,3.7669 -3.7675,3.96 -3.9846,5.7084 -1.3697,11.0203 1.5166,3.0807 2.3324,6.0151 2.6408,9.4977 0.3864,4.3637 0.9536,5.9094 4.2279,11.52 6.8011,11.6536 12.1836,17.64 15.8598,17.64 0.8552,0 2.4276,-0.8087 3.4943,-1.7974 z m -2.6589,-14.0429 c -0.5134,-13.5697 -1.8196,-22.8007 -4.4164,-31.2182 -1.5412,-4.9949 -1.5599,-5.29 -0.3167,-4.9649 1.9543,0.5111 6.3284,5.6483 8.0507,9.455 3.0668,6.779 2.2686,22.1082 -1.8793,36.0881 -0.9171,3.0904 -0.9834,2.6584 -1.4383,-9.36 z m 35.1292,6.8902 c 2.4273,-2.5736 6.6271,-12.1884 8.3559,-19.1302 0.5426,-2.1781 0.9902,-7.3695 0.9947,-11.537 0.009,-7.099 -0.1392,-7.8763 -2.3281,-12.3224 -3.9115,-7.9453 -10.5092,-10.9832 -20.3306,-9.3612 -6.6649,1.1007 -11.1941,3.2803 -13.3212,6.4109 l -1.7079,2.5132 2.3882,3.4718 c 2.8857,4.195 4.0011,8.4972 4.1998,16.1983 0.1432,5.5548 0.3011,6.0545 3.7497,11.8684 1.98,3.3384 5.4372,7.9345 7.6825,10.2135 4.9524,5.0273 6.8624,5.3371 10.317,1.6742 z m -3.2454,-10.55 c -0.008,-14.6854 -2.4954,-31.6584 -5.5024,-37.5599 -1.2016,-2.3584 -0.8217,-2.4497 2.2632,-0.5431 6.6861,4.1321 9.8527,14.6282 8.2554,27.3631 -0.7583,6.0455 -3.7701,19.16 -4.5882,19.978 -0.2322,0.2322 -0.4246,-3.9251 -0.428,-9.2381 z m 41.8033,-5.396 c -2.2901,-14.1965 -8.4291,-24.5514 -19.2866,-32.5318 -4.7503,-3.4914 -8.1108,-5.5534 -8.1108,-4.9765 0,0.1576 2.2133,1.9321 4.9187,3.9438 11.5013,8.5524 17.4067,17.5581 20.9183,31.9 1.0357,4.2299 2.0097,7.5705 2.1648,7.4237 0.155,-0.1469 -0.1171,-2.7383 -0.6044,-5.7592 z m 102.9116,-22.6242 c 4.0478,-18.1887 6.4836,-37.3793 6.4885,-51.1245 0.006,-16.8593 -5.51,-47.9435 -10.0928,-56.8755 -1.9916,-3.8817 -4.6335,-5.9683 -14.3847,-11.3623 l -9,-4.9782 -2.34,1.7759 c -1.2869,0.9768 -2.3391,2.3042 -2.3377,2.9503 0.006,3.0121 3.0277,16.2858 4.2562,18.6939 0.7571,1.4839 2.9835,5.3439 4.9476,8.5776 10.0976,16.6246 17.367,42.2498 19.6631,69.3116 0.8515,10.0355 0.3458,20.3488 -1.9057,38.8715 -0.5395,4.4371 2.3796,-5.3889 4.7057,-15.84 z M 286.71,435.3333 c 1.4714,-0.4408 5.1939,-0.6744 8.272,-0.5191 4.9289,0.2489 5.349,0.1769 3.5206,-0.6037 -5.4714,-2.3364 -14.3444,-0.4887 -18.3361,3.8182 l -1.7397,1.8768 2.8038,-1.8853 c 1.542,-1.0369 4.0076,-2.2462 5.4794,-2.6869 z m 262.9457,-0.5613 c 8.314,-2.8604 32.9326,-15.4715 32.0076,-16.3964 -0.1698,-0.1698 -9.0048,1.6514 -19.6333,4.0475 -10.6285,2.3959 -20.0509,4.356 -20.9387,4.356 -2.4315,0 -3.1045,-2.0965 -3.1045,-9.6726 0,-5.9273 0.2007,-7.088 1.44,-8.3274 1.7969,-1.7968 2.7394,-1.7948 9.0023,0.0199 4.3923,1.2722 22.5371,5.8859 30.9577,7.8718 l 2.88,0.6792 -1.8,-1.3955 c -3.0889,-2.3947 -31.2894,-16.3959 -34.0775,-16.9189 -5.2186,-0.9791 -7.6133,2.2144 -9.11,12.149 -1.3671,9.074 0.7594,21.3959 4.1352,23.959 1.7252,1.3099 3.6017,1.2257 8.2409,-0.3705 z m -233.0822,-5.417 c 4.737,-3.2145 9.7722,-3.615 18.7336,-1.4899 0.792,0.1879 0.144,-0.2951 -1.44,-1.0732 -5.6075,-2.7547 -13.7443,-1.559 -19.08,2.8038 -2.4865,2.033 -1.3357,1.8782 1.7864,-0.2404 z m 37.3811,-9.0717 c 2.5903,-0.8181 7.6285,-0.6676 12.6725,0.3784 1.571,0.3257 1.5253,0.2404 -0.36,-0.6727 -5.7489,-2.7836 -13.5964,-1.7254 -18.36,2.4755 l -2.52,2.2224 2.88,-1.7586 c 1.584,-0.9672 4.1434,-2.1575 5.6875,-2.645 z m -35.5675,-10.8122 c 2.5739,-0.8691 6.948,-2.0262 9.72,-2.571 l 5.04,-0.991 -4.1573,0.3634 c -6.0106,0.5255 -16.5546,4.1247 -23.1945,7.9171 -8.4903,4.8495 -8.2865,5.2906 0.3646,0.7889 4.151,-2.16 9.6534,-4.6383 12.2272,-5.5074 z M 89.0646,402.2943 c -5.584,-11.088 -5.7853,-19.9289 -0.5587,-24.518 2.2337,-1.9612 2.9848,-2.2229 5.4368,-1.8941 1.5647,0.2098 4.5096,1.4488 6.5446,2.7533 10.6841,6.8485 18.7521,9.5233 23.8598,7.9101 1.9556,-0.6177 1.7853,-0.6897 -1.8,-0.7614 -5.0145,-0.1 -10.1474,-2.2048 -18,-7.3808 -7.751,-5.1092 -11.0497,-6.0886 -15.0792,-4.4762 -7.7122,3.0858 -9.3288,14.032 -3.7936,25.6833 1.8828,3.9628 4.6063,7.7289 5.59,7.7289 0.1876,0 -0.8023,-2.2702 -2.1994,-5.0448 z m 253.2625,3.8481 c -0.4949,-0.1999 -1.3051,-0.1999 -1.8,0 -0.4949,0.1998 -0.0898,0.3631 0.9,0.3631 0.9899,0 1.3949,-0.1636 0.9,-0.3631 z M 68.5525,394.7054 C 70.471,382.9173 64.2492,372.2621 56.4171,373.9229 l -2.63,0.5579 3.4056,0.4408 c 6.9794,0.9034 10.4176,7.3936 9.7001,18.3121 -0.2103,3.2043 -0.591,6.6359 -0.8456,7.6257 -0.4407,1.7139 -0.407,1.7031 0.7028,-0.2208 0.6411,-1.1115 1.4521,-3.7814 1.8025,-5.9329 z m 481.7237,-16.7108 c 4.9093,-3.333 23.8008,-29.2428 22.6635,-31.0827 -0.678,-1.0973 -9.9791,-0.9649 -24.3615,0.3472 -12.0274,1.0973 -13.9842,1.5429 -16.5311,3.7644 -5.034,4.3912 7.5782,28.2549 14.9202,28.2311 0.8027,-0.003 2.2918,-0.5697 3.3086,-1.26 z m -11.2842,-6.3048 c -0.9952,-0.9952 -2.7842,-3.8923 -3.9753,-6.4375 -3.2774,-7.0033 -3.0308,-7.2411 11.6104,-11.1895 4.5542,-1.2282 11.9495,-3.3701 16.4347,-4.7599 4.485,-1.3898 8.4858,-2.4165 8.8909,-2.2813 0.947,0.3158 -28.8612,26.4781 -30.168,26.4781 -0.5406,0 -1.7975,-0.8144 -2.7927,-1.8096 z m -401.5134,-7.9211 c 2.463,-0.7314 4.8183,-2.1813 7.1507,-4.4017 2.7935,-2.6594 2.973,-2.9537 0.9122,-1.495 -9.1678,6.4885 -17.6876,6.2436 -33.1858,-0.9544 -12.7261,-5.9105 -23.2829,-7.5543 -34.8086,-5.4204 -15.0675,2.7899 -18.7789,3.7409 -16.666,4.2712 2.0959,0.5262 2.4032,0.4941 13.6928,-1.4232 12.6476,-2.1481 23.0116,-0.7135 35.3466,4.8931 12.5915,5.7235 19.6392,6.882 27.5584,4.5304 z m 401.1769,-33.8296 c 3.5246,-10.0445 7.2547,-22.9898 7.2451,-25.145 -0.006,-1.2492 -9.1636,14.7342 -15.512,27.0732 l -1.7329,3.3681 3.009,2.2127 c 1.6549,1.2172 3.2227,1.9695 3.4841,1.6719 0.2613,-0.2976 1.8394,-4.4289 3.507,-9.1809 z m -6.7804,-14.4989 c 6.9488,-6.5885 12.4786,-12.1345 12.2884,-12.3245 -0.7353,-0.7353 -32.1556,18.1268 -32.0672,19.2504 0.0386,0.4913 5.9372,4.9584 6.6175,5.0119 0.2897,0.0227 6.2121,-5.3489 13.161,-11.9375 z m -18.6115,3.6547 c 0.4346,-1.1324 -2.0919,-22.1952 -3.3843,-28.2158 -0.4464,-2.0789 -1.0312,-3.78 -1.2994,-3.78 -0.379,0 -4.0138,16.1368 -6.4357,28.5707 -0.2543,1.3051 0.407,1.9318 3.9087,3.7055 4.3262,2.1912 6.292,2.1146 7.211,-0.2804 z m -226.7365,-2.2802 c -1.4851,-0.1553 -3.9149,-0.1553 -5.4,0 -1.4851,0.1554 -0.2698,0.2824 2.7,0.2824 2.9702,0 4.1851,-0.127 2.7,-0.2824 z m 8.0011,-2.2087 c 1.6489,-1.1075 3.5297,-2.8083 4.1797,-3.78 0.788,-1.1778 0.2449,-0.879 -1.6297,0.8966 -1.546,1.4649 -3.9452,3.1532 -5.3311,3.7519 -1.3861,0.5987 -2.0018,1.1013 -1.3683,1.1166 0.6336,0.0142 2.5008,-0.8779 4.1497,-1.9851 z m -151.6978,0.1015 c 1.8148,-1.6424 1.6138,-3.2389 -0.6123,-4.8623 -1.83,-1.3346 -1.9116,-1.3357 -2.8573,-0.0425 -1.2056,1.6486 -1.2566,4.0853 -0.1097,5.2322 1.1656,1.1656 2.0152,1.0879 3.5793,-0.3277 z m 136.6767,-1.3748 c 0,-0.2237 -0.972,-1.2243 -2.16,-2.2241 -1.6225,-1.3655 -2.16,-2.4284 -2.16,-4.2735 0,-1.3507 -0.1352,-2.456 -0.3002,-2.456 -0.881,0 -7.357,3.1077 -9.1777,4.404 -2.6529,1.889 -2.3315,2.9114 1.2557,3.9937 2.8741,0.8671 12.5422,1.2954 12.5422,0.5556 z m 216.8858,-6.6206 c 1.8732,-3.4611 5.0457,-9.29 7.0495,-12.953 2.0041,-3.6629 3.3268,-6.66 2.9393,-6.66 -0.3875,0 -1.7666,2.187 -3.0646,4.86 -1.7583,3.621 -4.0779,6.5747 -9.0989,11.5861 -3.7066,3.6992 -6.6336,6.8156 -6.5052,6.925 0.4666,0.3969 4.5632,2.4917 4.9138,2.5129 0.1982,0.0114 1.8927,-2.8099 3.7659,-6.271 z m -215.0858,0.9856 c 0,-2.5694 -1.9329,-4.0408 -3.78,-2.8778 -2.8247,1.7788 -1.4218,5.5639 1.9185,5.1755 1.5231,-0.1771 1.8615,-0.595 1.8615,-2.298 z m 14.7779,0.5947 c 0.7894,-2.0764 0.9258,-6.0928 0.265,-7.8143 -0.4609,-1.2013 -3.5909,-1.5307 -5.148,-0.5423 -0.6687,0.4247 -0.4337,0.9845 0.9,2.1442 1.4275,1.2413 1.8051,2.2481 1.8051,4.8143 0,3.5762 1.0848,4.2727 2.1779,1.3978 z m -145.0891,-2.2249 c 0.6554,-0.6554 1.508,-2.0237 1.8947,-3.0402 1.4587,-3.837 5.7753,-21.2202 6.3329,-25.5044 l 0.5811,-4.4635 0.0912,4.2401 c 0.0797,3.7015 -2.0874,19.0573 -3.2629,23.1199 -0.7209,2.4911 3.6442,-2.1503 5.8725,-6.2444 2.9206,-5.3657 3.9059,-9.9621 4.4379,-20.6975 0.4624,-9.331 0.4315,-9.6423 -0.8985,-9.0805 -0.7577,0.3198 -4.8167,1.6144 -9.0205,2.8769 -8.7165,2.6175 -13.4815,5.1463 -16.0548,8.5204 -2.8264,3.7057 -6.1881,11.5013 -6.6532,15.4293 -0.8036,6.7853 1.6319,10.3835 9.7078,14.3427 4.0368,1.9789 5.3969,2.0769 6.9718,0.5017 z m 343.0417,-54.9684 c 0.8978,-9.6037 0.3586,-17.2493 -1.8053,-25.5994 -1.1824,-4.5626 -4.9437,-11.4179 -10.4469,-19.0406 -4.2261,-5.8538 -6.3799,-10.1225 -9.263,-18.36 -2.588,-7.3938 -6.1861,-13.0855 -10.4403,-16.5137 -5.9564,-4.8002 -6.6367,-4.673 -1.7858,0.3347 5.7637,5.9494 7.9778,9.4675 9.6698,15.3635 2.3275,8.1105 5.2535,13.9805 11.5041,23.0783 9.6548,14.0527 11.4248,20.0514 11.3454,38.4486 -0.0283,6.4632 0.0462,11.6472 0.165,11.52 0.1188,-0.1273 0.5944,-4.2815 1.0573,-9.2314 z M 308.7553,202.5329 c 3.5155,-0.62 9.7126,-1.3354 13.7718,-1.5897 4.0589,-0.2545 7.38,-0.5766 7.38,-0.716 0,-0.1395 -3.3758,-6.8131 -7.5019,-14.8306 -4.1261,-8.0175 -8.0141,-16.3372 -8.64,-18.4878 -1.3691,-4.7053 -1.4196,-10.2958 -0.1236,-13.7294 0.5233,-1.3861 1.181,-3.168 1.4621,-3.96 0.281,-0.792 -1.1738,0.3419 -3.2326,2.52 -10.9511,11.5841 -20.2782,28.1512 -24.1186,42.84 -1.544,5.9052 -1.6962,6.1926 -1.7172,3.24 -0.0575,-8.1314 4.3795,-20.9721 10.9097,-31.5723 2.5895,-4.2032 6.6266,-9.0396 12.6559,-15.1611 8.9047,-9.0408 10.5837,-11.7351 7.5818,-12.1671 -5.4564,-0.7852 -19.952,12.5031 -30.0864,27.5805 -4.1989,6.2467 -13.1927,24.4083 -16.4676,33.253 l -2.4485,6.6129 4.7636,0.4133 c 2.62,0.2274 6.8695,0.6534 9.4436,0.9471 4.1068,0.4683 5.6166,0.252 12.3282,-1.766 4.2066,-1.2648 10.5244,-2.8069 14.04,-3.4268 z"
      style="fill:#fff;stroke:white;stroke-width:0.8;stroke-linecap:butt;stroke-linejoin:miter;stroke-dasharray:none"
      id="path2" />
  </g>
</svg>
